<svg width="112" height="42" viewBox="0 0 112 42" fill="none" xmlns="http://www.w3.org/2000/svg">
<path d="M2.964 37.172C4.18 37.172 4.788 36.756 4.788 35.924C4.788 35.668 4.732 35.452 4.62 35.276C4.516 35.092 4.372 34.936 4.188 34.808C4.004 34.672 3.792 34.556 3.552 34.46C3.32 34.364 3.072 34.268 2.808 34.172C2.504 34.068 2.216 33.952 1.944 33.824C1.672 33.688 1.436 33.532 1.236 33.356C1.036 33.172 0.876 32.956 0.756 32.708C0.644 32.46 0.588 32.16 0.588 31.808C0.588 31.08 0.836 30.512 1.332 30.104C1.828 29.696 2.512 29.492 3.384 29.492C3.888 29.492 4.344 29.548 4.752 29.66C5.168 29.764 5.472 29.88 5.664 30.008L5.292 30.956C5.124 30.852 4.872 30.752 4.536 30.656C4.208 30.552 3.824 30.5 3.384 30.5C3.16 30.5 2.952 30.524 2.76 30.572C2.568 30.62 2.4 30.692 2.256 30.788C2.112 30.884 1.996 31.008 1.908 31.16C1.828 31.304 1.788 31.476 1.788 31.676C1.788 31.9 1.832 32.088 1.92 32.24C2.008 32.392 2.132 32.528 2.292 32.648C2.452 32.76 2.636 32.864 2.844 32.96C3.06 33.056 3.296 33.152 3.552 33.248C3.912 33.392 4.24 33.536 4.536 33.68C4.84 33.824 5.1 33.996 5.316 34.196C5.54 34.396 5.712 34.636 5.832 34.916C5.952 35.188 6.012 35.52 6.012 35.912C6.012 36.64 5.744 37.2 5.208 37.592C4.68 37.984 3.932 38.18 2.964 38.18C2.636 38.18 2.332 38.156 2.052 38.108C1.78 38.068 1.536 38.02 1.32 37.964C1.104 37.9 0.916 37.836 0.756 37.772C0.604 37.7 0.484 37.64 0.396 37.592L0.744 36.632C0.928 36.736 1.208 36.852 1.584 36.98C1.96 37.108 2.42 37.172 2.964 37.172ZM26.7147 29.684V30.692H24.0987V38H22.9347V30.692H20.3187V29.684H26.7147ZM44.7799 38.18C44.2359 38.18 43.7639 38.096 43.3639 37.928C42.9639 37.76 42.6359 37.532 42.3799 37.244C42.1239 36.948 41.9319 36.6 41.8039 36.2C41.6839 35.8 41.6239 35.368 41.6239 34.904V29.684H42.7879V34.772C42.7879 35.604 42.9719 36.208 43.3399 36.584C43.7079 36.96 44.1879 37.148 44.7799 37.148C45.0759 37.148 45.3439 37.104 45.5839 37.016C45.8319 36.92 46.0439 36.776 46.2199 36.584C46.3959 36.392 46.5319 36.148 46.6279 35.852C46.7239 35.548 46.7719 35.188 46.7719 34.772V29.684H47.9359V34.904C47.9359 35.368 47.8719 35.8 47.7439 36.2C47.6239 36.6 47.4319 36.948 47.1679 37.244C46.9119 37.532 46.5839 37.76 46.1839 37.928C45.7919 38.096 45.3239 38.18 44.7799 38.18ZM70.5136 33.836C70.5136 34.556 70.4016 35.184 70.1776 35.72C69.9536 36.248 69.6376 36.688 69.2296 37.04C68.8216 37.384 68.3336 37.644 67.7656 37.82C67.1976 37.988 66.5736 38.072 65.8936 38.072C65.5576 38.072 65.1856 38.056 64.7776 38.024C64.3776 38 64.0136 37.948 63.6856 37.868V29.804C64.0136 29.724 64.3776 29.672 64.7776 29.648C65.1856 29.616 65.5576 29.6 65.8936 29.6C66.5736 29.6 67.1976 29.688 67.7656 29.864C68.3336 30.032 68.8216 30.292 69.2296 30.644C69.6376 30.988 69.9536 31.428 70.1776 31.964C70.4016 32.492 70.5136 33.116 70.5136 33.836ZM65.9896 37.052C67.0936 37.052 67.9176 36.772 68.4616 36.212C69.0056 35.644 69.2776 34.852 69.2776 33.836C69.2776 32.82 69.0056 32.032 68.4616 31.472C67.9176 30.904 67.0936 30.62 65.9896 30.62C65.6616 30.62 65.4056 30.624 65.2216 30.632C65.0456 30.64 64.9216 30.648 64.8496 30.656V37.016C64.9216 37.024 65.0456 37.032 65.2216 37.04C65.4056 37.048 65.6616 37.052 65.9896 37.052ZM85.9803 29.684H87.1443V38H85.9803V29.684ZM102.607 33.836C102.607 33.124 102.711 32.496 102.919 31.952C103.135 31.408 103.423 30.956 103.783 30.596C104.151 30.228 104.575 29.952 105.055 29.768C105.543 29.584 106.059 29.492 106.603 29.492C107.139 29.492 107.643 29.584 108.115 29.768C108.595 29.952 109.015 30.228 109.375 30.596C109.735 30.956 110.019 31.408 110.227 31.952C110.443 32.496 110.551 33.124 110.551 33.836C110.551 34.548 110.443 35.176 110.227 35.72C110.019 36.264 109.735 36.72 109.375 37.088C109.015 37.448 108.595 37.72 108.115 37.904C107.643 38.088 107.139 38.18 106.603 38.18C106.059 38.18 105.543 38.088 105.055 37.904C104.575 37.72 104.151 37.448 103.783 37.088C103.423 36.72 103.135 36.264 102.919 35.72C102.711 35.176 102.607 34.548 102.607 33.836ZM103.831 33.836C103.831 34.34 103.895 34.8 104.023 35.216C104.151 35.624 104.331 35.972 104.563 36.26C104.803 36.548 105.091 36.772 105.427 36.932C105.771 37.084 106.155 37.16 106.579 37.16C107.003 37.16 107.383 37.084 107.719 36.932C108.055 36.772 108.339 36.548 108.571 36.26C108.811 35.972 108.995 35.624 109.123 35.216C109.251 34.8 109.315 34.34 109.315 33.836C109.315 33.332 109.251 32.876 109.123 32.468C108.995 32.052 108.811 31.7 108.571 31.412C108.339 31.124 108.055 30.904 107.719 30.752C107.383 30.592 107.003 30.512 106.579 30.512C106.155 30.512 105.771 30.592 105.427 30.752C105.091 30.904 104.803 31.124 104.563 31.412C104.331 31.7 104.151 32.052 104.023 32.468C103.895 32.876 103.831 33.332 103.831 33.836Z" fill="white"/>
<path d="M35.36 9.54C33.9067 9.54 32.8533 9.94667 32.2 10.76C31.56 11.56 31.24 12.66 31.24 14.06C31.24 14.74 31.32 15.36 31.48 15.92C31.64 16.4667 31.88 16.94 32.2 17.34C32.52 17.74 32.92 18.0533 33.4 18.28C33.88 18.4933 34.44 18.6 35.08 18.6C35.4267 18.6 35.72 18.5933 35.96 18.58C36.2133 18.5667 36.4333 18.54 36.62 18.5V13.68H39.74V20.54C39.3667 20.6867 38.7667 20.84 37.94 21C37.1133 21.1733 36.0933 21.26 34.88 21.26C33.84 21.26 32.8933 21.1 32.04 20.78C31.2 20.46 30.48 19.9933 29.88 19.38C29.28 18.7667 28.8133 18.0133 28.48 17.12C28.16 16.2267 28 15.2067 28 14.06C28 12.9 28.18 11.8733 28.54 10.98C28.9 10.0867 29.3933 9.33333 30.02 8.72C30.6467 8.09333 31.38 7.62 32.22 7.3C33.0733 6.98 33.98 6.82 34.94 6.82C35.5933 6.82 36.18 6.86667 36.7 6.96C37.2333 7.04 37.6867 7.14 38.06 7.26C38.4467 7.36667 38.76 7.48 39 7.6C39.2533 7.72 39.4333 7.81333 39.54 7.88L38.64 10.38C38.2133 10.1533 37.72 9.96 37.16 9.8C36.6133 9.62667 36.0133 9.54 35.36 9.54ZM51.923 21C51.7763 20.52 51.6096 20.0267 51.423 19.52C51.2496 19.0133 51.0763 18.5067 50.903 18H45.503C45.3296 18.5067 45.1496 19.0133 44.963 19.52C44.7896 20.0267 44.6296 20.52 44.483 21H41.243C41.763 19.5067 42.2563 18.1267 42.723 16.86C43.1896 15.5933 43.643 14.4 44.083 13.28C44.5363 12.16 44.9763 11.1 45.403 10.1C45.843 9.08667 46.2963 8.1 46.763 7.14H49.743C50.1963 8.1 50.643 9.08667 51.083 10.1C51.523 11.1 51.963 12.16 52.403 13.28C52.8563 14.4 53.3163 15.5933 53.783 16.86C54.2496 18.1267 54.743 19.5067 55.263 21H51.923ZM48.183 10.28C48.1163 10.48 48.0163 10.7533 47.883 11.1C47.7496 11.4467 47.5963 11.8467 47.423 12.3C47.2496 12.7533 47.0563 13.2533 46.843 13.8C46.643 14.3467 46.4363 14.92 46.223 15.52H50.163C49.9496 14.92 49.743 14.3467 49.543 13.8C49.343 13.2533 49.1496 12.7533 48.963 12.3C48.7896 11.8467 48.6363 11.4467 48.503 11.1C48.3696 10.7533 48.263 10.48 48.183 10.28ZM60.737 7.14C60.977 7.58 61.2504 8.12667 61.557 8.78C61.877 9.42 62.2037 10.12 62.537 10.88C62.8837 11.6267 63.2237 12.3933 63.557 13.18C63.8904 13.9667 64.2037 14.7067 64.497 15.4C64.7904 14.7067 65.1037 13.9667 65.437 13.18C65.7704 12.3933 66.1037 11.6267 66.437 10.88C66.7837 10.12 67.1104 9.42 67.417 8.78C67.737 8.12667 68.017 7.58 68.257 7.14H71.097C71.2304 8.06 71.3504 9.09333 71.457 10.24C71.577 11.3733 71.677 12.56 71.757 13.8C71.8504 15.0267 71.9304 16.26 71.997 17.5C72.077 18.74 72.1437 19.9067 72.197 21H69.157C69.117 19.6533 69.0637 18.1867 68.997 16.6C68.9304 15.0133 68.8304 13.4133 68.697 11.8C68.457 12.36 68.1904 12.98 67.897 13.66C67.6037 14.34 67.3104 15.02 67.017 15.7C66.737 16.38 66.4637 17.0333 66.197 17.66C65.9304 18.2733 65.7037 18.8 65.517 19.24H63.337C63.1504 18.8 62.9237 18.2733 62.657 17.66C62.3904 17.0333 62.1104 16.38 61.817 15.7C61.537 15.02 61.2504 14.34 60.957 13.66C60.6637 12.98 60.397 12.36 60.157 11.8C60.0237 13.4133 59.9237 15.0133 59.857 16.6C59.7904 18.1867 59.737 19.6533 59.697 21H56.657C56.7104 19.9067 56.7704 18.74 56.837 17.5C56.917 16.26 56.997 15.0267 57.077 13.8C57.1704 12.56 57.2704 11.3733 57.377 10.24C57.497 9.09333 57.6237 8.06 57.757 7.14H60.737ZM75.0063 21V7.14H84.3663V9.76H78.1263V12.48H83.6663V15.04H78.1263V18.38H84.8263V21H75.0063Z" fill="white"/>
</svg>
